<?xml version="1.0" encoding="utf-8"?>
<!-- Generator: Adobe Illustrator 22.0.0, SVG Export Plug-In . SVG Version: 6.00 Build 0)  -->
<svg version="1.1" id="BOOKING.COM__x2F__MASTER___x2F__NAVY_BLUE__x2F__LIGHT_BLUE"
	 xmlns="http://www.w3.org/2000/svg" xmlns:xlink="http://www.w3.org/1999/xlink" x="0px" y="0px" viewBox="0 0 283.7 47.2"
	 style="enable-background:new 0 0 283.7 47.2;" xml:space="preserve">
<style type="text/css">
	.st0{fill:#FFFFFF;}
	.st1{fill:#009FE3;}
</style>
<g id="XMLID_1_">
	<path id="XMLID_75_" class="st0" d="M111.4,4.2c0-2.4,1.9-4.3,4.3-4.3c2.4,0,4.3,1.9,4.3,4.3c0,2.4-1.9,4.3-4.3,4.3
		C113.3,8.5,111.4,6.6,111.4,4.2z"/>
	<path id="XMLID_74_" class="st1" d="M183.7,37.2c2.4,0,4.3-1.9,4.3-4.3c0-2.4-1.9-4.3-4.3-4.3c-2.4,0-4.3,1.9-4.3,4.3
		C179.4,35.3,181.3,37.2,183.7,37.2z"/>
	<path id="XMLID_28_" class="st0" d="M40.7,10.4c-7.8,0-13.5,5.7-13.5,13.4c0,7.8,5.7,13.4,13.5,13.4c7.9,0,13.6-5.7,13.6-13.4
		C54.3,16.1,48.6,10.4,40.7,10.4z M40.7,31c-3.7,0-6.3-3-6.3-7.2c0-4.2,2.6-7.2,6.3-7.2c3.7,0,6.3,2.9,6.3,7.2
		C47,28.2,44.5,31,40.7,31z"/>
	<path id="XMLID_44_" class="st0" d="M103.1,24.6c-0.3-0.6-0.7-1.1-1-1.4l-0.2-0.3l0.2-0.2c0.4-0.4,0.7-0.8,1.1-1.4l6.9-10.3h-8.4
		L96.4,19c-0.3,0.4-0.9,0.7-1.8,0.7h-1.2V4.4c0-3-1.9-3.5-3.9-3.5H86l0,35.9h7.5V26.2h0.7c0.8,0,1.4,0.1,1.7,0.6l4.1,7.8
		c1.1,2.1,2.3,2.5,4.4,2.5h5.7l-4.3-7L103.1,24.6z"/>
	<path id="XMLID_43_" class="st0" d="M139.2,10.4c-3.8,0-6.2,1.7-7.6,3.1l-0.5,0.5l-0.2-0.6c-0.4-1.5-1.7-2.4-3.8-2.4H124l0,26h7.4
		V25c0-1.2,0.2-2.2,0.5-3.1c0.8-2.8,3.1-4.5,6-4.5c2.3,0,3.2,1.2,3.2,4.4V33c0,2.7,1.2,3.9,3.9,3.9h3.5l0-16.5
		C148.5,13.9,145.3,10.4,139.2,10.4z"/>
	<path id="XMLID_39_" class="st0" d="M115.8,11h-3.5l0,26l7.4,0l0-22C119.7,12.3,118.4,11,115.8,11z"/>
	<path id="XMLID_31_" class="st0" d="M69.8,10.4c-7.9,0-13.6,5.7-13.6,13.4c0,7.8,5.7,13.4,13.6,13.4c7.9,0,13.6-5.7,13.6-13.4
		C83.4,16.1,77.6,10.4,69.8,10.4z M69.8,31c-3.7,0-6.3-3-6.3-7.2c0-4.2,2.6-7.2,6.3-7.2c3.7,0,6.3,2.9,6.3,7.2
		C76.1,28.2,73.6,31,69.8,31z"/>
	<path id="XMLID_34_" class="st1" d="M228.4,10.4c-7.9,0-13.6,5.7-13.6,13.4c0,7.8,5.7,13.4,13.6,13.4c7.9,0,13.6-5.7,13.6-13.4
		C242,16.1,236.3,10.4,228.4,10.4z M228.4,31c-3.7,0-6.3-3-6.3-7.2c0-4.2,2.6-7.2,6.3-7.2c3.7,0,6.3,2.9,6.3,7.2
		C234.7,28.2,232.2,31,228.4,31z"/>
	<path id="XMLID_37_" class="st0" d="M173,10.9c-1.4,0-2.5,0.6-3,1.6l-0.2,0.4l-0.3-0.3c-1.2-1-3.3-2.3-6.8-2.3
		c-6.9,0-11.6,5.2-11.6,12.9c0,7.7,4.8,13.1,11.7,13.1c2.4,0,4.2-0.5,5.7-1.7l0.6-0.4V35c0,3.5-2.2,5.4-6.3,5.4c-2,0-3.8-0.5-5-0.9
		c-1.6-0.5-2.5-0.1-3.1,1.5l-1.4,3.6l0.5,0.3c2.6,1.4,6,2.2,9,2.2c6.3,0,13.7-3.2,13.7-12.3l0-23.8H173z M164.1,29.9
		c-4,0-5.5-3.5-5.5-6.8c0-1.5,0.4-6.2,5.1-6.2c2.4,0,5.5,0.7,5.5,6.5C169.2,28.8,166.4,29.9,164.1,29.9z"/>
	<path id="XMLID_41_" class="st0" d="M20.8,18.5l-1.1-0.6l0.9-0.8c1.1-1,3-3.1,3-6.8c0-5.7-4.4-9.3-11.2-9.3H4.7H3.9
		c-2,0.1-3.6,1.7-3.6,3.7v32.1h12.4c7.5,0,12.4-4.1,12.4-10.5C25,22.9,23.5,20,20.8,18.5z M7.1,9.4c0-1.7,0.7-2.5,2.2-2.6h3.1
		c2.6,0,4.2,1.6,4.2,4.2c0,2-1.1,4.4-4.1,4.4H7.1V9.4z M13.1,30.7l-6,0v-7.2C7.1,22,7.7,21.2,9,21h4.1c2.9,0,4.8,1.8,4.8,4.8
		C18,28.9,16.1,30.7,13.1,30.7z"/>
	<path id="XMLID_47_" class="st1" d="M275.1,10.5c-3.1,0-6,1.4-7.9,3.9l-0.5,0.7l-0.4-0.8c-1.4-2.5-3.7-3.8-7-3.8
		c-3.4,0-5.7,1.9-6.8,3.1l-0.7,0.8l-0.3-1c-0.4-1.4-1.7-2.2-3.6-2.2h-3.1l0,25.9h7V25.5c0-1,0.1-2,0.4-3c0.7-2.8,2.5-5.7,5.6-5.4
		c1.9,0.2,2.9,1.7,2.9,4.5v15.3h7.1V25.5c0-1.2,0.1-2.2,0.4-3.1c0.6-2.6,2.5-5.3,5.5-5.3c2.2,0,3,1.2,3,4.5v11.6
		c0,2.6,1.2,3.8,3.8,3.8h3.3V20.4C283.7,13.8,280.8,10.5,275.1,10.5z"/>
	<path id="XMLID_48_" class="st1" d="M210.8,27.9c0,0-3.1,3.2-7.1,3.2c-3.7,0-7.3-2.2-7.3-7.2c0-4.3,2.9-7.3,6.9-7.3
		c1.3,0,2.8,0.5,3.1,1.3l0,0.1c0.5,1.8,2.2,1.9,2.5,1.9h3.9v-3.4c0-4.5-5.7-6.1-9.5-6.1c-8.2,0-14.1,5.7-14.1,13.5
		c0,7.8,5.9,13.5,14,13.5c7,0,11.1-4.9,11.1-4.9l-3.1-5.1L210.8,27.9z"/>
</g>
</svg>
